<svg width="158" height="34" viewBox="0 0 158 34" fill="none" xmlns="http://www.w3.org/2000/svg">
<rect x="0.5" y="0.5" width="157" height="33" rx="16.5" fill="#FBFCFF"/>
<rect x="0.5" y="0.5" width="157" height="33" rx="16.5" stroke="#00BF62"/>
<circle cx="17" cy="17" r="15" fill="#00BF62"/>
<path d="M23.3 9.8H21.5V8.9C21.5 8.66131 21.4052 8.43239 21.2364 8.2636C21.0676 8.09482 20.8387 8 20.6 8C20.3613 8 20.1324 8.09482 19.9636 8.2636C19.7948 8.43239 19.7 8.66131 19.7 8.9V9.8H14.3V8.9C14.3 8.66131 14.2052 8.43239 14.0364 8.2636C13.8676 8.09482 13.6387 8 13.4 8C13.1613 8 12.9324 8.09482 12.7636 8.2636C12.5948 8.43239 12.5 8.66131 12.5 8.9V9.8H10.7C9.98392 9.8 9.29716 10.0845 8.79081 10.5908C8.28446 11.0972 8 11.7839 8 12.5V23.3C8 24.0161 8.28446 24.7028 8.79081 25.2092C9.29716 25.7155 9.98392 26 10.7 26H23.3C24.0161 26 24.7028 25.7155 25.2092 25.2092C25.7155 24.7028 26 24.0161 26 23.3V12.5C26 11.7839 25.7155 11.0972 25.2092 10.5908C24.7028 10.0845 24.0161 9.8 23.3 9.8ZM24.2 23.3C24.2 23.5387 24.1052 23.7676 23.9364 23.9364C23.7676 24.1052 23.5387 24.2 23.3 24.2H10.7C10.4613 24.2 10.2324 24.1052 10.0636 23.9364C9.89482 23.7676 9.8 23.5387 9.8 23.3V17H24.2V23.3ZM24.2 15.2H9.8V12.5C9.8 12.2613 9.89482 12.0324 10.0636 11.8636C10.2324 11.6948 10.4613 11.6 10.7 11.6H12.5V12.5C12.5 12.7387 12.5948 12.9676 12.7636 13.1364C12.9324 13.3052 13.1613 13.4 13.4 13.4C13.6387 13.4 13.8676 13.3052 14.0364 13.1364C14.2052 12.9676 14.3 12.7387 14.3 12.5V11.6H19.7V12.5C19.7 12.7387 19.7948 12.9676 19.9636 13.1364C20.1324 13.3052 20.3613 13.4 20.6 13.4C20.8387 13.4 21.0676 13.3052 21.2364 13.1364C21.4052 12.9676 21.5 12.7387 21.5 12.5V11.6H23.3C23.5387 11.6 23.7676 11.6948 23.9364 11.8636C24.1052 12.0324 24.2 12.2613 24.2 12.5V15.2Z" fill="#FBFCFF"/>
<path d="M43.3501 12.926V19.296C43.3501 20.18 43.0944 20.869 42.5831 21.363C42.0718 21.8483 41.3871 22.091 40.5291 22.091C39.6624 22.091 38.9604 21.8397 38.4231 21.337C37.8944 20.8343 37.6301 20.1323 37.6301 19.231H39.4501C39.4588 19.621 39.5498 19.9243 39.7231 20.141C39.9051 20.3577 40.1651 20.466 40.5031 20.466C40.8324 20.466 41.0838 20.362 41.2571 20.154C41.4304 19.946 41.5171 19.66 41.5171 19.296V12.926H43.3501ZM45.0052 18.373C45.0052 17.645 45.1482 16.9993 45.4342 16.436C45.7288 15.8727 46.1232 15.4393 46.6172 15.136C47.1198 14.8327 47.6788 14.681 48.2942 14.681C48.8315 14.681 49.2995 14.7893 49.6982 15.006C50.1055 15.2227 50.4305 15.4957 50.6732 15.825V14.798H52.5062V22H50.6732V20.947C50.4392 21.285 50.1142 21.5667 49.6982 21.792C49.2908 22.0087 48.8185 22.117 48.2812 22.117C47.6745 22.117 47.1198 21.961 46.6172 21.649C46.1232 21.337 45.7288 20.8993 45.4342 20.336C45.1482 19.764 45.0052 19.1097 45.0052 18.373ZM50.6732 18.399C50.6732 17.957 50.5865 17.58 50.4132 17.268C50.2398 16.9473 50.0058 16.7047 49.7112 16.54C49.4165 16.3667 49.1002 16.28 48.7622 16.28C48.4242 16.28 48.1122 16.3623 47.8262 16.527C47.5402 16.6917 47.3062 16.9343 47.1242 17.255C46.9508 17.567 46.8642 17.9397 46.8642 18.373C46.8642 18.8063 46.9508 19.1877 47.1242 19.517C47.3062 19.8377 47.5402 20.0847 47.8262 20.258C48.1208 20.4313 48.4328 20.518 48.7622 20.518C49.1002 20.518 49.4165 20.4357 49.7112 20.271C50.0058 20.0977 50.2398 19.855 50.4132 19.543C50.5865 19.2223 50.6732 18.841 50.6732 18.399ZM53.8157 18.373C53.8157 17.645 53.9587 16.9993 54.2447 16.436C54.5394 15.8727 54.9381 15.4393 55.4407 15.136C55.9434 14.8327 56.5024 14.681 57.1177 14.681C57.5857 14.681 58.0321 14.785 58.4567 14.993C58.8814 15.1923 59.2194 15.461 59.4707 15.799V12.38H61.3167V22H59.4707V20.934C59.2454 21.2893 58.9291 21.5753 58.5217 21.792C58.1144 22.0087 57.6421 22.117 57.1047 22.117C56.4981 22.117 55.9434 21.961 55.4407 21.649C54.9381 21.337 54.5394 20.8993 54.2447 20.336C53.9587 19.764 53.8157 19.1097 53.8157 18.373ZM59.4837 18.399C59.4837 17.957 59.3971 17.58 59.2237 17.268C59.0504 16.9473 58.8164 16.7047 58.5217 16.54C58.2271 16.3667 57.9107 16.28 57.5727 16.28C57.2347 16.28 56.9227 16.3623 56.6367 16.527C56.3507 16.6917 56.1167 16.9343 55.9347 17.255C55.7614 17.567 55.6747 17.9397 55.6747 18.373C55.6747 18.8063 55.7614 19.1877 55.9347 19.517C56.1167 19.8377 56.3507 20.0847 56.6367 20.258C56.9314 20.4313 57.2434 20.518 57.5727 20.518C57.9107 20.518 58.2271 20.4357 58.5217 20.271C58.8164 20.0977 59.0504 19.855 59.2237 19.543C59.3971 19.2223 59.4837 18.841 59.4837 18.399ZM73.0783 14.798L70.9723 22H69.0093L67.6963 16.969L66.3833 22H64.4073L62.2883 14.798H64.1343L65.4083 20.284L66.7863 14.798H68.7103L70.0623 20.271L71.3363 14.798H73.0783ZM73.595 18.373C73.595 17.645 73.738 16.9993 74.024 16.436C74.3187 15.8727 74.713 15.4393 75.207 15.136C75.7097 14.8327 76.2687 14.681 76.884 14.681C77.4213 14.681 77.8893 14.7893 78.288 15.006C78.6953 15.2227 79.0203 15.4957 79.263 15.825V14.798H81.096V22H79.263V20.947C79.029 21.285 78.704 21.5667 78.288 21.792C77.8807 22.0087 77.4083 22.117 76.871 22.117C76.2643 22.117 75.7097 21.961 75.207 21.649C74.713 21.337 74.3187 20.8993 74.024 20.336C73.738 19.764 73.595 19.1097 73.595 18.373ZM79.263 18.399C79.263 17.957 79.1763 17.58 79.003 17.268C78.8297 16.9473 78.5957 16.7047 78.301 16.54C78.0063 16.3667 77.69 16.28 77.352 16.28C77.014 16.28 76.702 16.3623 76.416 16.527C76.13 16.6917 75.896 16.9343 75.714 17.255C75.5407 17.567 75.454 17.9397 75.454 18.373C75.454 18.8063 75.5407 19.1877 75.714 19.517C75.896 19.8377 76.13 20.0847 76.416 20.258C76.7107 20.4313 77.0227 20.518 77.352 20.518C77.69 20.518 78.0063 20.4357 78.301 20.271C78.5957 20.0977 78.8297 19.855 79.003 19.543C79.1763 19.2223 79.263 18.841 79.263 18.399ZM84.6936 12.38V22H82.8736V12.38H84.6936ZM92.7224 22.091C92.0897 22.091 91.5177 21.9827 91.0064 21.766C90.5037 21.5493 90.105 21.2373 89.8104 20.83C89.5157 20.4227 89.364 19.9417 89.3554 19.387H91.3054C91.3314 19.7597 91.4614 20.0543 91.6954 20.271C91.938 20.4877 92.2674 20.596 92.6834 20.596C93.108 20.596 93.4417 20.4963 93.6844 20.297C93.927 20.089 94.0484 19.8203 94.0484 19.491C94.0484 19.2223 93.966 19.0013 93.8014 18.828C93.6367 18.6547 93.4287 18.5203 93.1774 18.425C92.9347 18.321 92.5967 18.2083 92.1634 18.087C91.574 17.9137 91.093 17.7447 90.7204 17.58C90.3564 17.4067 90.04 17.151 89.7714 16.813C89.5114 16.4663 89.3814 16.007 89.3814 15.435C89.3814 14.8977 89.5157 14.4297 89.7844 14.031C90.053 13.6323 90.43 13.329 90.9154 13.121C91.4007 12.9043 91.9554 12.796 92.5794 12.796C93.5154 12.796 94.2737 13.0257 94.8544 13.485C95.4437 13.9357 95.7687 14.5683 95.8294 15.383H93.8274C93.81 15.071 93.6757 14.8153 93.4244 14.616C93.1817 14.408 92.8567 14.304 92.4494 14.304C92.094 14.304 91.808 14.395 91.5914 14.577C91.3834 14.759 91.2794 15.0233 91.2794 15.37C91.2794 15.6127 91.3574 15.8163 91.5134 15.981C91.678 16.137 91.8774 16.267 92.1114 16.371C92.354 16.4663 92.692 16.579 93.1254 16.709C93.7147 16.8823 94.1957 17.0557 94.5684 17.229C94.941 17.4023 95.2617 17.6623 95.5304 18.009C95.799 18.3557 95.9334 18.8107 95.9334 19.374C95.9334 19.8593 95.8077 20.31 95.5564 20.726C95.305 21.142 94.9367 21.4757 94.4514 21.727C93.966 21.9697 93.3897 22.091 92.7224 22.091ZM104.206 18.243C104.206 18.503 104.189 18.737 104.154 18.945H98.8893C98.9326 19.465 99.1146 19.8723 99.4353 20.167C99.7559 20.4617 100.15 20.609 100.618 20.609C101.294 20.609 101.775 20.3187 102.061 19.738H104.024C103.816 20.4313 103.418 21.0033 102.828 21.454C102.239 21.896 101.515 22.117 100.657 22.117C99.9639 22.117 99.3399 21.9653 98.7853 21.662C98.2393 21.35 97.8103 20.9123 97.4983 20.349C97.1949 19.7857 97.0433 19.1357 97.0433 18.399C97.0433 17.6537 97.1949 16.9993 97.4983 16.436C97.8016 15.8727 98.2263 15.4393 98.7723 15.136C99.3183 14.8327 99.9466 14.681 100.657 14.681C101.342 14.681 101.953 14.8283 102.49 15.123C103.036 15.4177 103.457 15.838 103.751 16.384C104.055 16.9213 104.206 17.541 104.206 18.243ZM102.321 17.723C102.313 17.255 102.144 16.8823 101.814 16.605C101.485 16.319 101.082 16.176 100.605 16.176C100.155 16.176 99.7733 16.3147 99.4613 16.592C99.1579 16.8607 98.9716 17.2377 98.9023 17.723H102.321ZM105.067 18.399C105.067 17.6537 105.218 17.0037 105.522 16.449C105.825 15.8857 106.245 15.4523 106.783 15.149C107.32 14.837 107.935 14.681 108.629 14.681C109.521 14.681 110.258 14.9063 110.839 15.357C111.428 15.799 111.822 16.423 112.022 17.229H110.059C109.955 16.917 109.777 16.6743 109.526 16.501C109.283 16.319 108.98 16.228 108.616 16.228C108.096 16.228 107.684 16.4187 107.381 16.8C107.077 17.1727 106.926 17.7057 106.926 18.399C106.926 19.0837 107.077 19.6167 107.381 19.998C107.684 20.3707 108.096 20.557 108.616 20.557C109.352 20.557 109.833 20.2277 110.059 19.569H112.022C111.822 20.349 111.428 20.9687 110.839 21.428C110.249 21.8873 109.513 22.117 108.629 22.117C107.935 22.117 107.32 21.9653 106.783 21.662C106.245 21.35 105.825 20.9167 105.522 20.362C105.218 19.7987 105.067 19.1443 105.067 18.399ZM120.154 14.798V22H118.321V21.09C118.087 21.402 117.779 21.649 117.398 21.831C117.025 22.0043 116.618 22.091 116.176 22.091C115.613 22.091 115.114 21.974 114.681 21.74C114.248 21.4973 113.905 21.1463 113.654 20.687C113.411 20.219 113.29 19.6643 113.29 19.023V14.798H115.11V18.763C115.11 19.335 115.253 19.777 115.539 20.089C115.825 20.3923 116.215 20.544 116.709 20.544C117.212 20.544 117.606 20.3923 117.892 20.089C118.178 19.777 118.321 19.335 118.321 18.763V14.798H120.154ZM123.77 15.916C124.004 15.5347 124.307 15.2357 124.68 15.019C125.061 14.8023 125.494 14.694 125.98 14.694V16.605H125.499C124.927 16.605 124.493 16.7393 124.199 17.008C123.913 17.2767 123.77 17.7447 123.77 18.412V22H121.95V14.798H123.77V15.916ZM128.129 13.94C127.808 13.94 127.539 13.8403 127.323 13.641C127.115 13.433 127.011 13.1773 127.011 12.874C127.011 12.5707 127.115 12.3193 127.323 12.12C127.539 11.912 127.808 11.808 128.129 11.808C128.449 11.808 128.714 11.912 128.922 12.12C129.138 12.3193 129.247 12.5707 129.247 12.874C129.247 13.1773 129.138 13.433 128.922 13.641C128.714 13.8403 128.449 13.94 128.129 13.94ZM129.026 14.798V22H127.206V14.798H129.026ZM132.943 16.293V19.777C132.943 20.0197 132.999 20.1973 133.112 20.31C133.233 20.414 133.432 20.466 133.71 20.466H134.555V22H133.411C131.877 22 131.11 21.2547 131.11 19.764V16.293H130.252V14.798H131.11V13.017H132.943V14.798H134.555V16.293H132.943ZM142.754 14.798L138.295 25.406H136.358L137.918 21.818L135.032 14.798H137.073L138.932 19.829L140.817 14.798H142.754Z" fill="#00BF62"/>
</svg>
