<svg width="135" height="29" viewBox="0 0 135 29" fill="none" xmlns="http://www.w3.org/2000/svg">
<rect x="0.5" y="0.5" width="134" height="28" rx="14" fill="#00BF62"/>
<rect x="0.5" y="0.5" width="134" height="28" rx="14" stroke="#FBFCFF"/>
<path d="M20.8267 11.02V12.15H18.9667V18H17.5667V12.15H15.7067V11.02H20.8267ZM21.4882 15.21C21.4882 14.65 21.5982 14.1533 21.8182 13.72C22.0449 13.2867 22.3482 12.9533 22.7282 12.72C23.1149 12.4867 23.5449 12.37 24.0182 12.37C24.4315 12.37 24.7915 12.4533 25.0982 12.62C25.4115 12.7867 25.6615 12.9967 25.8482 13.25V12.46H27.2582V18H25.8482V17.19C25.6682 17.45 25.4182 17.6667 25.0982 17.84C24.7849 18.0067 24.4215 18.09 24.0082 18.09C23.5415 18.09 23.1149 17.97 22.7282 17.73C22.3482 17.49 22.0449 17.1533 21.8182 16.72C21.5982 16.28 21.4882 15.7767 21.4882 15.21ZM25.8482 15.23C25.8482 14.89 25.7815 14.6 25.6482 14.36C25.5149 14.1133 25.3349 13.9267 25.1082 13.8C24.8815 13.6667 24.6382 13.6 24.3782 13.6C24.1182 13.6 23.8782 13.6633 23.6582 13.79C23.4382 13.9167 23.2582 14.1033 23.1182 14.35C22.9849 14.59 22.9182 14.8767 22.9182 15.21C22.9182 15.5433 22.9849 15.8367 23.1182 16.09C23.2582 16.3367 23.4382 16.5267 23.6582 16.66C23.8849 16.7933 24.1249 16.86 24.3782 16.86C24.6382 16.86 24.8815 16.7967 25.1082 16.67C25.3349 16.5367 25.5149 16.35 25.6482 16.11C25.7815 15.8633 25.8482 15.57 25.8482 15.23ZM35.5055 12.38C36.1855 12.38 36.7322 12.59 37.1455 13.01C37.5655 13.4233 37.7755 14.0033 37.7755 14.75V18H36.3755V14.94C36.3755 14.5067 36.2655 14.1767 36.0455 13.95C35.8255 13.7167 35.5255 13.6 35.1455 13.6C34.7655 13.6 34.4622 13.7167 34.2355 13.95C34.0155 14.1767 33.9055 14.5067 33.9055 14.94V18H32.5055V14.94C32.5055 14.5067 32.3955 14.1767 32.1755 13.95C31.9555 13.7167 31.6555 13.6 31.2755 13.6C30.8889 13.6 30.5822 13.7167 30.3555 13.95C30.1355 14.1767 30.0255 14.5067 30.0255 14.94V18H28.6255V12.46H30.0255V13.13C30.2055 12.8967 30.4355 12.7133 30.7155 12.58C31.0022 12.4467 31.3155 12.38 31.6555 12.38C32.0889 12.38 32.4755 12.4733 32.8155 12.66C33.1555 12.84 33.4189 13.1 33.6055 13.44C33.7855 13.12 34.0455 12.8633 34.3855 12.67C34.7322 12.4767 35.1055 12.38 35.5055 12.38ZM40.5041 13.27C40.6841 13.0033 40.9307 12.7867 41.2441 12.62C41.5641 12.4533 41.9274 12.37 42.3341 12.37C42.8074 12.37 43.2341 12.4867 43.6141 12.72C44.0007 12.9533 44.3041 13.2867 44.5241 13.72C44.7507 14.1467 44.8641 14.6433 44.8641 15.21C44.8641 15.7767 44.7507 16.28 44.5241 16.72C44.3041 17.1533 44.0007 17.49 43.6141 17.73C43.2341 17.97 42.8074 18.09 42.3341 18.09C41.9207 18.09 41.5574 18.01 41.2441 17.85C40.9374 17.6833 40.6907 17.47 40.5041 17.21V18H39.1041V10.6H40.5041V13.27ZM43.4341 15.21C43.4341 14.8767 43.3641 14.59 43.2241 14.35C43.0907 14.1033 42.9107 13.9167 42.6841 13.79C42.4641 13.6633 42.2241 13.6 41.9641 13.6C41.7107 13.6 41.4707 13.6667 41.2441 13.8C41.0241 13.9267 40.8441 14.1133 40.7041 14.36C40.5707 14.6067 40.5041 14.8967 40.5041 15.23C40.5041 15.5633 40.5707 15.8533 40.7041 16.1C40.8441 16.3467 41.0241 16.5367 41.2441 16.67C41.4707 16.7967 41.7107 16.86 41.9641 16.86C42.2241 16.86 42.4641 16.7933 42.6841 16.66C42.9107 16.5267 43.0907 16.3367 43.2241 16.09C43.3641 15.8433 43.4341 15.55 43.4341 15.21ZM45.5214 15.21C45.5214 14.65 45.6314 14.1533 45.8514 13.72C46.0781 13.2867 46.3814 12.9533 46.7614 12.72C47.1481 12.4867 47.5781 12.37 48.0514 12.37C48.4647 12.37 48.8247 12.4533 49.1314 12.62C49.4447 12.7867 49.6947 12.9967 49.8814 13.25V12.46H51.2914V18H49.8814V17.19C49.7014 17.45 49.4514 17.6667 49.1314 17.84C48.8181 18.0067 48.4547 18.09 48.0414 18.09C47.5747 18.09 47.1481 17.97 46.7614 17.73C46.3814 17.49 46.0781 17.1533 45.8514 16.72C45.6314 16.28 45.5214 15.7767 45.5214 15.21ZM49.8814 15.23C49.8814 14.89 49.8147 14.6 49.6814 14.36C49.5481 14.1133 49.3681 13.9267 49.1414 13.8C48.9147 13.6667 48.6714 13.6 48.4114 13.6C48.1514 13.6 47.9114 13.6633 47.6914 13.79C47.4714 13.9167 47.2914 14.1033 47.1514 14.35C47.0181 14.59 46.9514 14.8767 46.9514 15.21C46.9514 15.5433 47.0181 15.8367 47.1514 16.09C47.2914 16.3367 47.4714 16.5267 47.6914 16.66C47.9181 16.7933 48.1581 16.86 48.4114 16.86C48.6714 16.86 48.9147 16.7967 49.1414 16.67C49.3681 16.5367 49.5481 16.35 49.6814 16.11C49.8147 15.8633 49.8814 15.57 49.8814 15.23ZM55.7788 12.38C56.1988 12.38 56.5721 12.4733 56.8988 12.66C57.2254 12.84 57.4788 13.11 57.6588 13.47C57.8454 13.8233 57.9388 14.25 57.9388 14.75V18H56.5388V14.94C56.5388 14.5 56.4288 14.1633 56.2088 13.93C55.9888 13.69 55.6888 13.57 55.3088 13.57C54.9221 13.57 54.6154 13.69 54.3888 13.93C54.1688 14.1633 54.0588 14.5 54.0588 14.94V18H52.6588V10.6H54.0588V13.15C54.2388 12.91 54.4788 12.7233 54.7788 12.59C55.0788 12.45 55.4121 12.38 55.7788 12.38ZM64.0629 18.07C63.5762 18.07 63.1362 17.9867 62.7429 17.82C62.3562 17.6533 62.0496 17.4133 61.8229 17.1C61.5962 16.7867 61.4796 16.4167 61.4729 15.99H62.9729C62.9929 16.2767 63.0929 16.5033 63.2729 16.67C63.4596 16.8367 63.7129 16.92 64.0329 16.92C64.3596 16.92 64.6162 16.8433 64.8029 16.69C64.9896 16.53 65.0829 16.3233 65.0829 16.07C65.0829 15.8633 65.0196 15.6933 64.8929 15.56C64.7662 15.4267 64.6062 15.3233 64.4129 15.25C64.2262 15.17 63.9662 15.0833 63.6329 14.99C63.1796 14.8567 62.8096 14.7267 62.5229 14.6C62.2429 14.4667 61.9996 14.27 61.7929 14.01C61.5929 13.7433 61.4929 13.39 61.4929 12.95C61.4929 12.5367 61.5962 12.1767 61.8029 11.87C62.0096 11.5633 62.2996 11.33 62.6729 11.17C63.0462 11.0033 63.4729 10.92 63.9529 10.92C64.6729 10.92 65.2562 11.0967 65.7029 11.45C66.1562 11.7967 66.4062 12.2833 66.4529 12.91H64.9129C64.8996 12.67 64.7962 12.4733 64.6029 12.32C64.4162 12.16 64.1662 12.08 63.8529 12.08C63.5796 12.08 63.3596 12.15 63.1929 12.29C63.0329 12.43 62.9529 12.6333 62.9529 12.9C62.9529 13.0867 63.0129 13.2433 63.1329 13.37C63.2596 13.49 63.4129 13.59 63.5929 13.67C63.7796 13.7433 64.0396 13.83 64.3729 13.93C64.8262 14.0633 65.1962 14.1967 65.4829 14.33C65.7696 14.4633 66.0162 14.6633 66.2229 14.93C66.4296 15.1967 66.5329 15.5467 66.5329 15.98C66.5329 16.3533 66.4362 16.7 66.2429 17.02C66.0496 17.34 65.7662 17.5967 65.3929 17.79C65.0196 17.9767 64.5762 18.07 64.0629 18.07ZM72.8966 15.11C72.8966 15.31 72.8833 15.49 72.8566 15.65H68.8066C68.84 16.05 68.98 16.3633 69.2266 16.59C69.4733 16.8167 69.7766 16.93 70.1366 16.93C70.6566 16.93 71.0266 16.7067 71.2466 16.26H72.7566C72.5966 16.7933 72.29 17.2333 71.8366 17.58C71.3833 17.92 70.8266 18.09 70.1666 18.09C69.6333 18.09 69.1533 17.9733 68.7266 17.74C68.3066 17.5 67.9766 17.1633 67.7366 16.73C67.5033 16.2967 67.3866 15.7967 67.3866 15.23C67.3866 14.6567 67.5033 14.1533 67.7366 13.72C67.97 13.2867 68.2966 12.9533 68.7166 12.72C69.1366 12.4867 69.62 12.37 70.1666 12.37C70.6933 12.37 71.1633 12.4833 71.5766 12.71C71.9966 12.9367 72.32 13.26 72.5466 13.68C72.78 14.0933 72.8966 14.57 72.8966 15.11ZM71.4466 14.71C71.44 14.35 71.31 14.0633 71.0566 13.85C70.8033 13.63 70.4933 13.52 70.1266 13.52C69.78 13.52 69.4866 13.6267 69.2466 13.84C69.0133 14.0467 68.87 14.3367 68.8166 14.71H71.4466ZM73.5585 15.23C73.5585 14.6567 73.6752 14.1567 73.9085 13.73C74.1418 13.2967 74.4652 12.9633 74.8785 12.73C75.2918 12.49 75.7652 12.37 76.2985 12.37C76.9852 12.37 77.5518 12.5433 77.9985 12.89C78.4518 13.23 78.7552 13.71 78.9085 14.33H77.3985C77.3185 14.09 77.1818 13.9033 76.9885 13.77C76.8018 13.63 76.5685 13.56 76.2885 13.56C75.8885 13.56 75.5718 13.7067 75.3385 14C75.1052 14.2867 74.9885 14.6967 74.9885 15.23C74.9885 15.7567 75.1052 16.1667 75.3385 16.46C75.5718 16.7467 75.8885 16.89 76.2885 16.89C76.8552 16.89 77.2252 16.6367 77.3985 16.13H78.9085C78.7552 16.73 78.4518 17.2067 77.9985 17.56C77.5452 17.9133 76.9785 18.09 76.2985 18.09C75.7652 18.09 75.2918 17.9733 74.8785 17.74C74.4652 17.5 74.1418 17.1667 73.9085 16.74C73.6752 16.3067 73.5585 15.8033 73.5585 15.23ZM85.1641 12.46V18H83.7541V17.3C83.5741 17.54 83.3375 17.73 83.0441 17.87C82.7575 18.0033 82.4441 18.07 82.1041 18.07C81.6708 18.07 81.2875 17.98 80.9541 17.8C80.6208 17.6133 80.3575 17.3433 80.1641 16.99C79.9775 16.63 79.8841 16.2033 79.8841 15.71V12.46H81.2841V15.51C81.2841 15.95 81.3941 16.29 81.6141 16.53C81.8341 16.7633 82.1341 16.88 82.5141 16.88C82.9008 16.88 83.2041 16.7633 83.4241 16.53C83.6441 16.29 83.7541 15.95 83.7541 15.51V12.46H85.1641ZM87.9455 13.32C88.1255 13.0267 88.3588 12.7967 88.6455 12.63C88.9388 12.4633 89.2721 12.38 89.6455 12.38V13.85H89.2755C88.8355 13.85 88.5021 13.9533 88.2755 14.16C88.0555 14.3667 87.9455 14.7267 87.9455 15.24V18H86.5455V12.46H87.9455V13.32ZM91.2984 11.8C91.0518 11.8 90.8451 11.7233 90.6784 11.57C90.5184 11.41 90.4384 11.2133 90.4384 10.98C90.4384 10.7467 90.5184 10.5533 90.6784 10.4C90.8451 10.24 91.0518 10.16 91.2984 10.16C91.5451 10.16 91.7484 10.24 91.9084 10.4C92.0751 10.5533 92.1584 10.7467 92.1584 10.98C92.1584 11.2133 92.0751 11.41 91.9084 11.57C91.7484 11.7233 91.5451 11.8 91.2984 11.8ZM91.9884 12.46V18H90.5884V12.46H91.9884ZM95.0016 13.61V16.29C95.0016 16.4767 95.045 16.6133 95.1316 16.7C95.225 16.78 95.3783 16.82 95.5916 16.82H96.2416V18H95.3616C94.1816 18 93.5916 17.4267 93.5916 16.28V13.61H92.9316V12.46H93.5916V11.09H95.0016V12.46H96.2416V13.61H95.0016ZM102.549 12.46L99.1186 20.62H97.6286L98.8286 17.86L96.6086 12.46H98.1786L99.6086 16.33L101.059 12.46H102.549Z" fill="#FBFCFF"/>
<circle cx="120.5" cy="14.5" r="12.5" fill="#FBFCFF"/>
<path d="M125.5 12.8335H122.167V9.50016C122.167 9.05814 121.991 8.63421 121.678 8.32165C121.366 8.00909 120.942 7.8335 120.5 7.8335C120.058 7.8335 119.634 8.00909 119.321 8.32165C119.009 8.63421 118.833 9.05814 118.833 9.50016L118.892 12.8335H115.5C115.058 12.8335 114.634 13.0091 114.321 13.3217C114.009 13.6342 113.833 14.0581 113.833 14.5002C113.833 14.9422 114.009 15.3661 114.321 15.6787C114.634 15.9912 115.058 16.1668 115.5 16.1668L118.892 16.1077L118.833 19.5002C118.833 19.9422 119.009 20.3661 119.321 20.6787C119.634 20.9912 120.058 21.1668 120.5 21.1668C120.942 21.1668 121.366 20.9912 121.678 20.6787C121.991 20.3661 122.167 19.9422 122.167 19.5002V16.1077L125.5 16.1668C125.942 16.1668 126.366 15.9912 126.678 15.6787C126.991 15.3661 127.167 14.9422 127.167 14.5002C127.167 14.0581 126.991 13.6342 126.678 13.3217C126.366 13.0091 125.942 12.8335 125.5 12.8335Z" fill="#00BF62"/>
</svg>
