<svg width="115" height="34" viewBox="0 0 115 34" fill="none" xmlns="http://www.w3.org/2000/svg">
<rect x="0.5" y="0.5" width="114" height="33" rx="16.5" fill="#00BF62"/>
<rect x="0.5" y="0.5" width="114" height="33" rx="16.5" stroke="#FBFCFF"/>
<circle cx="17" cy="17" r="15" fill="#FBFCFF"/>
<path d="M13.25 18.5C12.8375 18.5 12.4845 18.3533 12.191 18.0598C11.8975 17.7663 11.7505 17.413 11.75 17C11.7495 16.587 11.8965 16.234 12.191 15.941C12.4855 15.648 12.8385 15.501 13.25 15.5C13.6615 15.499 14.0148 15.646 14.3098 15.941C14.6048 16.236 14.7515 16.589 14.75 17C14.7485 17.411 14.6017 17.7643 14.3098 18.0598C14.0178 18.3552 13.6645 18.502 13.25 18.5ZM13.25 21.5C12 21.5 10.9375 21.0625 10.0625 20.1875C9.1875 19.3125 8.75 18.25 8.75 17C8.75 15.75 9.1875 14.6875 10.0625 13.8125C10.9375 12.9375 12 12.5 13.25 12.5C14.0875 12.5 14.847 12.7062 15.5285 13.1187C16.21 13.5312 16.7505 14.075 17.15 14.75H23.75L26 17L22.625 20.375L21.125 19.25L19.625 20.375L18.0312 19.25H17.15C16.75 19.925 16.2095 20.4687 15.5285 20.8812C14.8475 21.2937 14.088 21.5 13.25 21.5ZM13.25 20C13.95 20 14.5658 19.7875 15.0972 19.3625C15.6288 18.9375 15.9818 18.4 16.1562 17.75H18.5L19.5875 18.5187L21.125 17.375L22.4562 18.4062L23.8625 17L23.1125 16.25H16.1562C15.9812 15.6 15.6283 15.0625 15.0972 14.6375C14.5663 14.2125 13.9505 14 13.25 14C12.425 14 11.7188 14.2938 11.1313 14.8813C10.5438 15.4688 10.25 16.175 10.25 17C10.25 17.825 10.5438 18.5312 11.1313 19.1187C11.7188 19.7062 12.425 20 13.25 20Z" fill="#00BF62"/>
<path d="M40.1897 20.557H43.1797V22H38.3697V12.926H40.1897V20.557ZM45.2595 13.94C44.9388 13.94 44.6701 13.8403 44.4535 13.641C44.2455 13.433 44.1415 13.1773 44.1415 12.874C44.1415 12.5707 44.2455 12.3193 44.4535 12.12C44.6701 11.912 44.9388 11.808 45.2595 11.808C45.5801 11.808 45.8445 11.912 46.0525 12.12C46.2691 12.3193 46.3775 12.5707 46.3775 12.874C46.3775 13.1773 46.2691 13.433 46.0525 13.641C45.8445 13.8403 45.5801 13.94 45.2595 13.94ZM46.1565 14.798V22H44.3365V14.798H46.1565ZM50.7106 22.117C50.1213 22.117 49.5926 22.013 49.1246 21.805C48.6566 21.5883 48.284 21.298 48.0066 20.934C47.738 20.57 47.5906 20.167 47.5646 19.725H49.3976C49.4323 20.0023 49.5666 20.232 49.8006 20.414C50.0433 20.596 50.3423 20.687 50.6976 20.687C51.0443 20.687 51.313 20.6177 51.5036 20.479C51.703 20.3403 51.8026 20.1627 51.8026 19.946C51.8026 19.712 51.6813 19.5387 51.4386 19.426C51.2046 19.3047 50.8276 19.1747 50.3076 19.036C49.7703 18.906 49.3283 18.7717 48.9816 18.633C48.6436 18.4943 48.349 18.282 48.0976 17.996C47.855 17.71 47.7336 17.3243 47.7336 16.839C47.7336 16.4403 47.8463 16.0763 48.0716 15.747C48.3056 15.4177 48.635 15.1577 49.0596 14.967C49.493 14.7763 50 14.681 50.5806 14.681C51.4386 14.681 52.1233 14.8977 52.6346 15.331C53.146 15.7557 53.4276 16.332 53.4796 17.06H51.7376C51.7116 16.774 51.5903 16.5487 51.3736 16.384C51.1656 16.2107 50.884 16.124 50.5286 16.124C50.1993 16.124 49.9436 16.1847 49.7616 16.306C49.5883 16.4273 49.5016 16.5963 49.5016 16.813C49.5016 17.0557 49.623 17.242 49.8656 17.372C50.1083 17.4933 50.4853 17.619 50.9966 17.749C51.5166 17.879 51.9456 18.0133 52.2836 18.152C52.6216 18.2907 52.912 18.5073 53.1546 18.802C53.406 19.088 53.536 19.4693 53.5446 19.946C53.5446 20.362 53.4276 20.7347 53.1936 21.064C52.9683 21.3933 52.639 21.6533 52.2056 21.844C51.781 22.026 51.2826 22.117 50.7106 22.117ZM57.1576 16.293V19.777C57.1576 20.0197 57.2139 20.1973 57.3266 20.31C57.4479 20.414 57.6473 20.466 57.9246 20.466H58.7696V22H57.6256C56.0916 22 55.3246 21.2547 55.3246 19.764V16.293H54.4666V14.798H55.3246V13.017H57.1576V14.798H58.7696V16.293H57.1576ZM68.2983 22L64.9963 17.957V22H63.1763V12.926H64.9963V16.995L68.2983 12.926H70.4953L66.7513 17.424L70.5993 22H68.2983ZM78.5954 14.798V22H76.7624V21.09C76.5284 21.402 76.2207 21.649 75.8394 21.831C75.4667 22.0043 75.0594 22.091 74.6174 22.091C74.0541 22.091 73.5557 21.974 73.1224 21.74C72.6891 21.4973 72.3467 21.1463 72.0954 20.687C71.8527 20.219 71.7314 19.6643 71.7314 19.023V14.798H73.5514V18.763C73.5514 19.335 73.6944 19.777 73.9804 20.089C74.2664 20.3923 74.6564 20.544 75.1504 20.544C75.6531 20.544 76.0474 20.3923 76.3334 20.089C76.6194 19.777 76.7624 19.335 76.7624 18.763V14.798H78.5954ZM84.3821 14.694C85.2401 14.694 85.9335 14.967 86.4621 15.513C86.9908 16.0503 87.2551 16.8043 87.2551 17.775V22H85.4351V18.022C85.4351 17.45 85.2921 17.0123 85.0061 16.709C84.7201 16.397 84.3301 16.241 83.8361 16.241C83.3335 16.241 82.9348 16.397 82.6401 16.709C82.3541 17.0123 82.2111 17.45 82.2111 18.022V22H80.3911V14.798H82.2111V15.695C82.4538 15.383 82.7615 15.1403 83.1341 14.967C83.5155 14.785 83.9315 14.694 84.3821 14.694ZM88.5179 18.399C88.5179 17.6537 88.6695 17.0037 88.9729 16.449C89.2762 15.8857 89.6965 15.4523 90.2339 15.149C90.7712 14.837 91.3865 14.681 92.0799 14.681C92.9725 14.681 93.7092 14.9063 94.2899 15.357C94.8792 15.799 95.2735 16.423 95.4729 17.229H93.5099C93.4059 16.917 93.2282 16.6743 92.9769 16.501C92.7342 16.319 92.4309 16.228 92.0669 16.228C91.5469 16.228 91.1352 16.4187 90.8319 16.8C90.5285 17.1727 90.3769 17.7057 90.3769 18.399C90.3769 19.0837 90.5285 19.6167 90.8319 19.998C91.1352 20.3707 91.5469 20.557 92.0669 20.557C92.8035 20.557 93.2845 20.2277 93.5099 19.569H95.4729C95.2735 20.349 94.8792 20.9687 94.2899 21.428C93.7005 21.8873 92.9639 22.117 92.0799 22.117C91.3865 22.117 90.7712 21.9653 90.2339 21.662C89.6965 21.35 89.2762 20.9167 88.9729 20.362C88.6695 19.7987 88.5179 19.1443 88.5179 18.399ZM97.7292 13.94C97.4085 13.94 97.1398 13.8403 96.9232 13.641C96.7152 13.433 96.6112 13.1773 96.6112 12.874C96.6112 12.5707 96.7152 12.3193 96.9232 12.12C97.1398 11.912 97.4085 11.808 97.7292 11.808C98.0498 11.808 98.3142 11.912 98.5222 12.12C98.7388 12.3193 98.8472 12.5707 98.8472 12.874C98.8472 13.1773 98.7388 13.433 98.5222 13.641C98.3142 13.8403 98.0498 13.94 97.7292 13.94ZM98.6262 14.798V22H96.8062V14.798H98.6262Z" fill="#FBFCFF"/>
</svg>
