<svg width="122" height="29" viewBox="0 0 122 29" fill="none" xmlns="http://www.w3.org/2000/svg">
<rect x="0.5" y="0.5" width="121" height="28" rx="14" fill="#00BF62"/>
<rect x="0.5" y="0.5" width="121" height="28" rx="14" stroke="#FBFCFF"/>
<path d="M20.8257 11.02V12.15H18.9657V18H17.5657V12.15H15.7057V11.02H20.8257ZM21.4872 15.21C21.4872 14.65 21.5972 14.1533 21.8172 13.72C22.0439 13.2867 22.3472 12.9533 22.7272 12.72C23.1139 12.4867 23.5439 12.37 24.0172 12.37C24.4306 12.37 24.7906 12.4533 25.0972 12.62C25.4106 12.7867 25.6606 12.9967 25.8472 13.25V12.46H27.2572V18H25.8472V17.19C25.6672 17.45 25.4172 17.6667 25.0972 17.84C24.7839 18.0067 24.4206 18.09 24.0072 18.09C23.5406 18.09 23.1139 17.97 22.7272 17.73C22.3472 17.49 22.0439 17.1533 21.8172 16.72C21.5972 16.28 21.4872 15.7767 21.4872 15.21ZM25.8472 15.23C25.8472 14.89 25.7806 14.6 25.6472 14.36C25.5139 14.1133 25.3339 13.9267 25.1072 13.8C24.8806 13.6667 24.6372 13.6 24.3772 13.6C24.1172 13.6 23.8772 13.6633 23.6572 13.79C23.4372 13.9167 23.2572 14.1033 23.1172 14.35C22.9839 14.59 22.9172 14.8767 22.9172 15.21C22.9172 15.5433 22.9839 15.8367 23.1172 16.09C23.2572 16.3367 23.4372 16.5267 23.6572 16.66C23.8839 16.7933 24.1239 16.86 24.3772 16.86C24.6372 16.86 24.8806 16.7967 25.1072 16.67C25.3339 16.5367 25.5139 16.35 25.6472 16.11C25.7806 15.8633 25.8472 15.57 25.8472 15.23ZM35.5046 12.38C36.1846 12.38 36.7312 12.59 37.1446 13.01C37.5646 13.4233 37.7746 14.0033 37.7746 14.75V18H36.3746V14.94C36.3746 14.5067 36.2646 14.1767 36.0446 13.95C35.8246 13.7167 35.5246 13.6 35.1446 13.6C34.7646 13.6 34.4612 13.7167 34.2346 13.95C34.0146 14.1767 33.9046 14.5067 33.9046 14.94V18H32.5046V14.94C32.5046 14.5067 32.3946 14.1767 32.1746 13.95C31.9546 13.7167 31.6546 13.6 31.2746 13.6C30.8879 13.6 30.5812 13.7167 30.3546 13.95C30.1346 14.1767 30.0246 14.5067 30.0246 14.94V18H28.6246V12.46H30.0246V13.13C30.2046 12.8967 30.4346 12.7133 30.7146 12.58C31.0012 12.4467 31.3146 12.38 31.6546 12.38C32.0879 12.38 32.4746 12.4733 32.8146 12.66C33.1546 12.84 33.4179 13.1 33.6046 13.44C33.7846 13.12 34.0446 12.8633 34.3846 12.67C34.7312 12.4767 35.1046 12.38 35.5046 12.38ZM40.5031 13.27C40.6831 13.0033 40.9298 12.7867 41.2431 12.62C41.5631 12.4533 41.9264 12.37 42.3331 12.37C42.8064 12.37 43.2331 12.4867 43.6131 12.72C43.9998 12.9533 44.3031 13.2867 44.5231 13.72C44.7498 14.1467 44.8631 14.6433 44.8631 15.21C44.8631 15.7767 44.7498 16.28 44.5231 16.72C44.3031 17.1533 43.9998 17.49 43.6131 17.73C43.2331 17.97 42.8064 18.09 42.3331 18.09C41.9198 18.09 41.5564 18.01 41.2431 17.85C40.9364 17.6833 40.6898 17.47 40.5031 17.21V18H39.1031V10.6H40.5031V13.27ZM43.4331 15.21C43.4331 14.8767 43.3631 14.59 43.2231 14.35C43.0898 14.1033 42.9098 13.9167 42.6831 13.79C42.4631 13.6633 42.2231 13.6 41.9631 13.6C41.7098 13.6 41.4698 13.6667 41.2431 13.8C41.0231 13.9267 40.8431 14.1133 40.7031 14.36C40.5698 14.6067 40.5031 14.8967 40.5031 15.23C40.5031 15.5633 40.5698 15.8533 40.7031 16.1C40.8431 16.3467 41.0231 16.5367 41.2431 16.67C41.4698 16.7967 41.7098 16.86 41.9631 16.86C42.2231 16.86 42.4631 16.7933 42.6831 16.66C42.9098 16.5267 43.0898 16.3367 43.2231 16.09C43.3631 15.8433 43.4331 15.55 43.4331 15.21ZM45.5204 15.21C45.5204 14.65 45.6304 14.1533 45.8504 13.72C46.0771 13.2867 46.3804 12.9533 46.7604 12.72C47.1471 12.4867 47.5771 12.37 48.0504 12.37C48.4638 12.37 48.8238 12.4533 49.1304 12.62C49.4438 12.7867 49.6938 12.9967 49.8804 13.25V12.46H51.2904V18H49.8804V17.19C49.7004 17.45 49.4504 17.6667 49.1304 17.84C48.8171 18.0067 48.4538 18.09 48.0404 18.09C47.5738 18.09 47.1471 17.97 46.7604 17.73C46.3804 17.49 46.0771 17.1533 45.8504 16.72C45.6304 16.28 45.5204 15.7767 45.5204 15.21ZM49.8804 15.23C49.8804 14.89 49.8138 14.6 49.6804 14.36C49.5471 14.1133 49.3671 13.9267 49.1404 13.8C48.9138 13.6667 48.6704 13.6 48.4104 13.6C48.1504 13.6 47.9104 13.6633 47.6904 13.79C47.4704 13.9167 47.2904 14.1033 47.1504 14.35C47.0171 14.59 46.9504 14.8767 46.9504 15.21C46.9504 15.5433 47.0171 15.8367 47.1504 16.09C47.2904 16.3367 47.4704 16.5267 47.6904 16.66C47.9171 16.7933 48.1571 16.86 48.4104 16.86C48.6704 16.86 48.9138 16.7967 49.1404 16.67C49.3671 16.5367 49.5471 16.35 49.6804 16.11C49.8138 15.8633 49.8804 15.57 49.8804 15.23ZM55.7778 12.38C56.1978 12.38 56.5711 12.4733 56.8978 12.66C57.2244 12.84 57.4778 13.11 57.6578 13.47C57.8444 13.8233 57.9378 14.25 57.9378 14.75V18H56.5378V14.94C56.5378 14.5 56.4278 14.1633 56.2078 13.93C55.9878 13.69 55.6878 13.57 55.3078 13.57C54.9211 13.57 54.6144 13.69 54.3878 13.93C54.1678 14.1633 54.0578 14.5 54.0578 14.94V18H52.6578V10.6H54.0578V13.15C54.2378 12.91 54.4778 12.7233 54.7778 12.59C55.0778 12.45 55.4111 12.38 55.7778 12.38ZM65.5919 18L63.0519 14.89V18H61.6519V11.02H63.0519V14.15L65.5919 11.02H67.2819L64.4019 14.48L67.3619 18H65.5919ZM73.5128 12.46V18H72.1028V17.3C71.9228 17.54 71.6861 17.73 71.3928 17.87C71.1061 18.0033 70.7928 18.07 70.4528 18.07C70.0194 18.07 69.6361 17.98 69.3028 17.8C68.9694 17.6133 68.7061 17.3433 68.5128 16.99C68.3261 16.63 68.2328 16.2033 68.2328 15.71V12.46H69.6328V15.51C69.6328 15.95 69.7428 16.29 69.9628 16.53C70.1828 16.7633 70.4828 16.88 70.8628 16.88C71.2494 16.88 71.5528 16.7633 71.7728 16.53C71.9928 16.29 72.1028 15.95 72.1028 15.51V12.46H73.5128ZM77.9641 12.38C78.6241 12.38 79.1574 12.59 79.5641 13.01C79.9708 13.4233 80.1741 14.0033 80.1741 14.75V18H78.7741V14.94C78.7741 14.5 78.6641 14.1633 78.4441 13.93C78.2241 13.69 77.9241 13.57 77.5441 13.57C77.1574 13.57 76.8508 13.69 76.6241 13.93C76.4041 14.1633 76.2941 14.5 76.2941 14.94V18H74.8941V12.46H76.2941V13.15C76.4808 12.91 76.7174 12.7233 77.0041 12.59C77.2974 12.45 77.6174 12.38 77.9641 12.38ZM81.1454 15.23C81.1454 14.6567 81.2621 14.1567 81.4954 13.73C81.7288 13.2967 82.0521 12.9633 82.4654 12.73C82.8788 12.49 83.3521 12.37 83.8854 12.37C84.5721 12.37 85.1388 12.5433 85.5854 12.89C86.0388 13.23 86.3421 13.71 86.4954 14.33H84.9854C84.9054 14.09 84.7688 13.9033 84.5754 13.77C84.3888 13.63 84.1554 13.56 83.8754 13.56C83.4754 13.56 83.1588 13.7067 82.9254 14C82.6921 14.2867 82.5754 14.6967 82.5754 15.23C82.5754 15.7567 82.6921 16.1667 82.9254 16.46C83.1588 16.7467 83.4754 16.89 83.8754 16.89C84.4421 16.89 84.8121 16.6367 84.9854 16.13H86.4954C86.3421 16.73 86.0388 17.2067 85.5854 17.56C85.1321 17.9133 84.5654 18.09 83.8854 18.09C83.3521 18.09 82.8788 17.9733 82.4654 17.74C82.0521 17.5 81.7288 17.1667 81.4954 16.74C81.2621 16.3067 81.1454 15.8033 81.1454 15.23ZM88.2311 11.8C87.9844 11.8 87.7777 11.7233 87.6111 11.57C87.4511 11.41 87.3711 11.2133 87.3711 10.98C87.3711 10.7467 87.4511 10.5533 87.6111 10.4C87.7777 10.24 87.9844 10.16 88.2311 10.16C88.4777 10.16 88.6811 10.24 88.8411 10.4C89.0077 10.5533 89.0911 10.7467 89.0911 10.98C89.0911 11.2133 89.0077 11.41 88.8411 11.57C88.6811 11.7233 88.4777 11.8 88.2311 11.8ZM88.9211 12.46V18H87.5211V12.46H88.9211Z" fill="#FBFCFF"/>
<circle cx="107.5" cy="14.5" r="12.5" fill="#FBFCFF"/>
<path d="M112.5 12.8335H109.167V9.50016C109.167 9.05814 108.991 8.63421 108.678 8.32165C108.366 8.00909 107.942 7.8335 107.5 7.8335C107.058 7.8335 106.634 8.00909 106.321 8.32165C106.009 8.63421 105.833 9.05814 105.833 9.50016L105.892 12.8335H102.5C102.058 12.8335 101.634 13.0091 101.321 13.3217C101.009 13.6342 100.833 14.0581 100.833 14.5002C100.833 14.9422 101.009 15.3661 101.321 15.6787C101.634 15.9912 102.058 16.1668 102.5 16.1668L105.892 16.1077L105.833 19.5002C105.833 19.9422 106.009 20.3661 106.321 20.6787C106.634 20.9912 107.058 21.1668 107.5 21.1668C107.942 21.1668 108.366 20.9912 108.678 20.6787C108.991 20.3661 109.167 19.9422 109.167 19.5002V16.1077L112.5 16.1668C112.942 16.1668 113.366 15.9912 113.678 15.6787C113.991 15.3661 114.167 14.9422 114.167 14.5002C114.167 14.0581 113.991 13.6342 113.678 13.3217C113.366 13.0091 112.942 12.8335 112.5 12.8335Z" fill="#00BF62"/>
</svg>
