<svg width="147" height="34" viewBox="0 0 147 34" fill="none" xmlns="http://www.w3.org/2000/svg">
<rect x="0.5" y="0.5" width="146" height="33" rx="16.5" fill="#00BF62"/>
<rect x="0.5" y="0.5" width="146" height="33" rx="16.5" stroke="#FBFCFF"/>
<circle cx="17" cy="17" r="15" fill="#FBFCFF"/>
<path d="M13.25 18.5C12.8375 18.5 12.4845 18.3533 12.191 18.0598C11.8975 17.7663 11.7505 17.413 11.75 17C11.7495 16.587 11.8965 16.234 12.191 15.941C12.4855 15.648 12.8385 15.501 13.25 15.5C13.6615 15.499 14.0148 15.646 14.3098 15.941C14.6048 16.236 14.7515 16.589 14.75 17C14.7485 17.411 14.6017 17.7643 14.3098 18.0598C14.0178 18.3552 13.6645 18.502 13.25 18.5ZM13.25 21.5C12 21.5 10.9375 21.0625 10.0625 20.1875C9.1875 19.3125 8.75 18.25 8.75 17C8.75 15.75 9.1875 14.6875 10.0625 13.8125C10.9375 12.9375 12 12.5 13.25 12.5C14.0875 12.5 14.847 12.7062 15.5285 13.1187C16.21 13.5312 16.7505 14.075 17.15 14.75H23.75L26 17L22.625 20.375L21.125 19.25L19.625 20.375L18.0312 19.25H17.15C16.75 19.925 16.2095 20.4687 15.5285 20.8812C14.8475 21.2937 14.088 21.5 13.25 21.5ZM13.25 20C13.95 20 14.5658 19.7875 15.0972 19.3625C15.6288 18.9375 15.9818 18.4 16.1562 17.75H18.5L19.5875 18.5187L21.125 17.375L22.4562 18.4062L23.8625 17L23.1125 16.25H16.1562C15.9812 15.6 15.6283 15.0625 15.0972 14.6375C14.5663 14.2125 13.9505 14 13.25 14C12.425 14 11.7188 14.2938 11.1313 14.8813C10.5438 15.4688 10.25 16.175 10.25 17C10.25 17.825 10.5438 18.5312 11.1313 19.1187C11.7188 19.7062 12.425 20 13.25 20Z" fill="#00BF62"/>
<path d="M39.7746 20.557H42.7646V22H37.9546V12.926H39.7746V20.557ZM43.4534 18.373C43.4534 17.645 43.5964 16.9993 43.8824 16.436C44.1771 15.8727 44.5714 15.4393 45.0654 15.136C45.5681 14.8327 46.1271 14.681 46.7424 14.681C47.2797 14.681 47.7477 14.7893 48.1464 15.006C48.5537 15.2227 48.8787 15.4957 49.1214 15.825V14.798H50.9544V22H49.1214V20.947C48.8874 21.285 48.5624 21.5667 48.1464 21.792C47.7391 22.0087 47.2667 22.117 46.7294 22.117C46.1227 22.117 45.5681 21.961 45.0654 21.649C44.5714 21.337 44.1771 20.8993 43.8824 20.336C43.5964 19.764 43.4534 19.1097 43.4534 18.373ZM49.1214 18.399C49.1214 17.957 49.0347 17.58 48.8614 17.268C48.6881 16.9473 48.4541 16.7047 48.1594 16.54C47.8647 16.3667 47.5484 16.28 47.2104 16.28C46.8724 16.28 46.5604 16.3623 46.2744 16.527C45.9884 16.6917 45.7544 16.9343 45.5724 17.255C45.3991 17.567 45.3124 17.9397 45.3124 18.373C45.3124 18.8063 45.3991 19.1877 45.5724 19.517C45.7544 19.8377 45.9884 20.0847 46.2744 20.258C46.5691 20.4313 46.8811 20.518 47.2104 20.518C47.5484 20.518 47.8647 20.4357 48.1594 20.271C48.4541 20.0977 48.6881 19.855 48.8614 19.543C49.0347 19.2223 49.1214 18.841 49.1214 18.399ZM54.552 15.838C54.786 15.5087 55.1066 15.2357 55.514 15.019C55.93 14.7937 56.4023 14.681 56.931 14.681C57.5463 14.681 58.101 14.8327 58.595 15.136C59.0976 15.4393 59.492 15.8727 59.778 16.436C60.0726 16.9907 60.22 17.6363 60.22 18.373C60.22 19.1097 60.0726 19.764 59.778 20.336C59.492 20.8993 59.0976 21.337 58.595 21.649C58.101 21.961 57.5463 22.117 56.931 22.117C56.4023 22.117 55.9343 22.0087 55.527 21.792C55.1283 21.5753 54.8033 21.3023 54.552 20.973V25.432H52.732V14.798H54.552V15.838ZM58.361 18.373C58.361 17.9397 58.27 17.567 58.088 17.255C57.9146 16.9343 57.6806 16.6917 57.386 16.527C57.1 16.3623 56.788 16.28 56.45 16.28C56.1206 16.28 55.8086 16.3667 55.514 16.54C55.228 16.7047 54.994 16.9473 54.812 17.268C54.6386 17.5887 54.552 17.9657 54.552 18.399C54.552 18.8323 54.6386 19.2093 54.812 19.53C54.994 19.8507 55.228 20.0977 55.514 20.271C55.8086 20.4357 56.1206 20.518 56.45 20.518C56.788 20.518 57.1 20.4313 57.386 20.258C57.6806 20.0847 57.9146 19.8377 58.088 19.517C58.27 19.1963 58.361 18.815 58.361 18.373ZM64.7405 22.117C64.0472 22.117 63.4232 21.9653 62.8685 21.662C62.3138 21.35 61.8762 20.9123 61.5555 20.349C61.2435 19.7857 61.0875 19.1357 61.0875 18.399C61.0875 17.6623 61.2478 17.0123 61.5685 16.449C61.8978 15.8857 62.3442 15.4523 62.9075 15.149C63.4708 14.837 64.0992 14.681 64.7925 14.681C65.4858 14.681 66.1142 14.837 66.6775 15.149C67.2408 15.4523 67.6828 15.8857 68.0035 16.449C68.3328 17.0123 68.4975 17.6623 68.4975 18.399C68.4975 19.1357 68.3285 19.7857 67.9905 20.349C67.6612 20.9123 67.2105 21.35 66.6385 21.662C66.0752 21.9653 65.4425 22.117 64.7405 22.117ZM64.7405 20.531C65.0698 20.531 65.3775 20.453 65.6635 20.297C65.9582 20.1323 66.1922 19.8897 66.3655 19.569C66.5388 19.2483 66.6255 18.8583 66.6255 18.399C66.6255 17.7143 66.4435 17.19 66.0795 16.826C65.7242 16.4533 65.2865 16.267 64.7665 16.267C64.2465 16.267 63.8088 16.4533 63.4535 16.826C63.1068 17.19 62.9335 17.7143 62.9335 18.399C62.9335 19.0837 63.1025 19.6123 63.4405 19.985C63.7872 20.349 64.2205 20.531 64.7405 20.531ZM71.6525 15.916C71.8865 15.5347 72.1899 15.2357 72.5625 15.019C72.9439 14.8023 73.3772 14.694 73.8625 14.694V16.605H73.3815C72.8095 16.605 72.3762 16.7393 72.0815 17.008C71.7955 17.2767 71.6525 17.7447 71.6525 18.412V22H69.8325V14.798H71.6525V15.916ZM74.6204 18.373C74.6204 17.645 74.7634 16.9993 75.0494 16.436C75.3441 15.8727 75.7384 15.4393 76.2324 15.136C76.7351 14.8327 77.2941 14.681 77.9094 14.681C78.4467 14.681 78.9147 14.7893 79.3134 15.006C79.7207 15.2227 80.0457 15.4957 80.2884 15.825V14.798H82.1214V22H80.2884V20.947C80.0544 21.285 79.7294 21.5667 79.3134 21.792C78.9061 22.0087 78.4337 22.117 77.8964 22.117C77.2897 22.117 76.7351 21.961 76.2324 21.649C75.7384 21.337 75.3441 20.8993 75.0494 20.336C74.7634 19.764 74.6204 19.1097 74.6204 18.373ZM80.2884 18.399C80.2884 17.957 80.2017 17.58 80.0284 17.268C79.8551 16.9473 79.6211 16.7047 79.3264 16.54C79.0317 16.3667 78.7154 16.28 78.3774 16.28C78.0394 16.28 77.7274 16.3623 77.4414 16.527C77.1554 16.6917 76.9214 16.9343 76.7394 17.255C76.5661 17.567 76.4794 17.9397 76.4794 18.373C76.4794 18.8063 76.5661 19.1877 76.7394 19.517C76.9214 19.8377 77.1554 20.0847 77.4414 20.258C77.7361 20.4313 78.0481 20.518 78.3774 20.518C78.7154 20.518 79.0317 20.4357 79.3264 20.271C79.6211 20.0977 79.8551 19.855 80.0284 19.543C80.2017 19.2223 80.2884 18.841 80.2884 18.399ZM87.89 14.694C88.748 14.694 89.4413 14.967 89.97 15.513C90.4986 16.0503 90.763 16.8043 90.763 17.775V22H88.943V18.022C88.943 17.45 88.8 17.0123 88.514 16.709C88.228 16.397 87.838 16.241 87.344 16.241C86.8413 16.241 86.4426 16.397 86.148 16.709C85.862 17.0123 85.719 17.45 85.719 18.022V22H83.899V14.798H85.719V15.695C85.9616 15.383 86.2693 15.1403 86.642 14.967C87.0233 14.785 87.4393 14.694 87.89 14.694ZM100.713 22L97.4113 17.957V22H95.5913V12.926H97.4113V16.995L100.713 12.926H102.91L99.1663 17.424L103.014 22H100.713ZM111.01 14.798V22H109.177V21.09C108.943 21.402 108.636 21.649 108.254 21.831C107.882 22.0043 107.474 22.091 107.032 22.091C106.469 22.091 105.971 21.974 105.537 21.74C105.104 21.4973 104.762 21.1463 104.51 20.687C104.268 20.219 104.146 19.6643 104.146 19.023V14.798H105.966V18.763C105.966 19.335 106.109 19.777 106.395 20.089C106.681 20.3923 107.071 20.544 107.565 20.544C108.068 20.544 108.462 20.3923 108.748 20.089C109.034 19.777 109.177 19.335 109.177 18.763V14.798H111.01ZM116.797 14.694C117.655 14.694 118.349 14.967 118.877 15.513C119.406 16.0503 119.67 16.8043 119.67 17.775V22H117.85V18.022C117.85 17.45 117.707 17.0123 117.421 16.709C117.135 16.397 116.745 16.241 116.251 16.241C115.749 16.241 115.35 16.397 115.055 16.709C114.769 17.0123 114.626 17.45 114.626 18.022V22H112.806V14.798H114.626V15.695C114.869 15.383 115.177 15.1403 115.549 14.967C115.931 14.785 116.347 14.694 116.797 14.694ZM120.933 18.399C120.933 17.6537 121.085 17.0037 121.388 16.449C121.691 15.8857 122.112 15.4523 122.649 15.149C123.186 14.837 123.802 14.681 124.495 14.681C125.388 14.681 126.124 14.9063 126.705 15.357C127.294 15.799 127.689 16.423 127.888 17.229H125.925C125.821 16.917 125.643 16.6743 125.392 16.501C125.149 16.319 124.846 16.228 124.482 16.228C123.962 16.228 123.55 16.4187 123.247 16.8C122.944 17.1727 122.792 17.7057 122.792 18.399C122.792 19.0837 122.944 19.6167 123.247 19.998C123.55 20.3707 123.962 20.557 124.482 20.557C125.219 20.557 125.7 20.2277 125.925 19.569H127.888C127.689 20.349 127.294 20.9687 126.705 21.428C126.116 21.8873 125.379 22.117 124.495 22.117C123.802 22.117 123.186 21.9653 122.649 21.662C122.112 21.35 121.691 20.9167 121.388 20.362C121.085 19.7987 120.933 19.1443 120.933 18.399ZM130.144 13.94C129.824 13.94 129.555 13.8403 129.338 13.641C129.13 13.433 129.026 13.1773 129.026 12.874C129.026 12.5707 129.13 12.3193 129.338 12.12C129.555 11.912 129.824 11.808 130.144 11.808C130.465 11.808 130.729 11.912 130.937 12.12C131.154 12.3193 131.262 12.5707 131.262 12.874C131.262 13.1773 131.154 13.433 130.937 13.641C130.729 13.8403 130.465 13.94 130.144 13.94ZM131.041 14.798V22H129.221V14.798H131.041Z" fill="#FBFCFF"/>
</svg>
