<svg width="114" height="29" viewBox="0 0 114 29" fill="none" xmlns="http://www.w3.org/2000/svg">
<rect x="0.5" y="0.5" width="113" height="28" rx="14" fill="#00BF62"/>
<rect x="0.5" y="0.5" width="113" height="28" rx="14" stroke="#FBFCFF"/>
<path d="M21.0036 13.18C21.0036 13.5533 20.9136 13.9033 20.7336 14.23C20.5603 14.5567 20.2836 14.82 19.9036 15.02C19.5303 15.22 19.057 15.32 18.4836 15.32H17.3136V18H15.9136V11.02H18.4836C19.0236 11.02 19.4836 11.1133 19.8636 11.3C20.2436 11.4867 20.527 11.7433 20.7136 12.07C20.907 12.3967 21.0036 12.7667 21.0036 13.18ZM18.4236 14.19C18.8103 14.19 19.097 14.1033 19.2836 13.93C19.4703 13.75 19.5636 13.5 19.5636 13.18C19.5636 12.5 19.1836 12.16 18.4236 12.16H17.3136V14.19H18.4236ZM22.7076 11.8C22.461 11.8 22.2543 11.7233 22.0876 11.57C21.9276 11.41 21.8476 11.2133 21.8476 10.98C21.8476 10.7467 21.9276 10.5533 22.0876 10.4C22.2543 10.24 22.461 10.16 22.7076 10.16C22.9543 10.16 23.1576 10.24 23.3176 10.4C23.4843 10.5533 23.5676 10.7467 23.5676 10.98C23.5676 11.2133 23.4843 11.41 23.3176 11.57C23.1576 11.7233 22.9543 11.8 22.7076 11.8ZM23.3976 12.46V18H21.9976V12.46H23.3976ZM27.8508 12.38C28.5108 12.38 29.0442 12.59 29.4508 13.01C29.8575 13.4233 30.0608 14.0033 30.0608 14.75V18H28.6608V14.94C28.6608 14.5 28.5508 14.1633 28.3308 13.93C28.1108 13.69 27.8108 13.57 27.4308 13.57C27.0442 13.57 26.7375 13.69 26.5108 13.93C26.2908 14.1633 26.1808 14.5 26.1808 14.94V18H24.7808V12.46H26.1808V13.15C26.3675 12.91 26.6042 12.7233 26.8908 12.59C27.1842 12.45 27.5042 12.38 27.8508 12.38ZM32.1021 11.8C31.8488 11.8 31.6388 11.7233 31.4721 11.57C31.3121 11.41 31.2321 11.2133 31.2321 10.98C31.2321 10.7467 31.3121 10.5533 31.4721 10.4C31.6388 10.24 31.8488 10.16 32.1021 10.16C32.3488 10.16 32.5521 10.24 32.7121 10.4C32.8721 10.5533 32.9521 10.7467 32.9521 10.98C32.9521 11.2133 32.8721 11.41 32.7121 11.57C32.5521 11.7233 32.3488 11.8 32.1021 11.8ZM32.7921 18.91C32.7921 19.5233 32.6388 19.9633 32.3321 20.23C32.0321 20.5033 31.5988 20.64 31.0321 20.64H30.4121V19.45H30.8121C31.0255 19.45 31.1755 19.4067 31.2621 19.32C31.3488 19.24 31.3921 19.1067 31.3921 18.92V12.46H32.7921V18.91ZM33.8154 15.21C33.8154 14.65 33.9254 14.1533 34.1454 13.72C34.372 13.2867 34.6754 12.9533 35.0554 12.72C35.442 12.4867 35.872 12.37 36.3454 12.37C36.7587 12.37 37.1187 12.4533 37.4254 12.62C37.7387 12.7867 37.9887 12.9967 38.1754 13.25V12.46H39.5854V18H38.1754V17.19C37.9954 17.45 37.7454 17.6667 37.4254 17.84C37.112 18.0067 36.7487 18.09 36.3354 18.09C35.8687 18.09 35.442 17.97 35.0554 17.73C34.6754 17.49 34.372 17.1533 34.1454 16.72C33.9254 16.28 33.8154 15.7767 33.8154 15.21ZM38.1754 15.23C38.1754 14.89 38.1087 14.6 37.9754 14.36C37.842 14.1133 37.662 13.9267 37.4354 13.8C37.2087 13.6667 36.9654 13.6 36.7054 13.6C36.4454 13.6 36.2054 13.6633 35.9854 13.79C35.7654 13.9167 35.5854 14.1033 35.4454 14.35C35.312 14.59 35.2454 14.8767 35.2454 15.21C35.2454 15.5433 35.312 15.8367 35.4454 16.09C35.5854 16.3367 35.7654 16.5267 35.9854 16.66C36.212 16.7933 36.452 16.86 36.7054 16.86C36.9654 16.86 37.2087 16.7967 37.4354 16.67C37.662 16.5367 37.842 16.35 37.9754 16.11C38.1087 15.8633 38.1754 15.57 38.1754 15.23ZM47.8327 12.38C48.5127 12.38 49.0594 12.59 49.4727 13.01C49.8927 13.4233 50.1027 14.0033 50.1027 14.75V18H48.7027V14.94C48.7027 14.5067 48.5927 14.1767 48.3727 13.95C48.1527 13.7167 47.8527 13.6 47.4727 13.6C47.0927 13.6 46.7894 13.7167 46.5627 13.95C46.3427 14.1767 46.2327 14.5067 46.2327 14.94V18H44.8327V14.94C44.8327 14.5067 44.7227 14.1767 44.5027 13.95C44.2827 13.7167 43.9827 13.6 43.6027 13.6C43.216 13.6 42.9094 13.7167 42.6827 13.95C42.4627 14.1767 42.3527 14.5067 42.3527 14.94V18H40.9527V12.46H42.3527V13.13C42.5327 12.8967 42.7627 12.7133 43.0427 12.58C43.3294 12.4467 43.6427 12.38 43.9827 12.38C44.416 12.38 44.8027 12.4733 45.1427 12.66C45.4827 12.84 45.746 13.1 45.9327 13.44C46.1127 13.12 46.3727 12.8633 46.7127 12.67C47.0594 12.4767 47.4327 12.38 47.8327 12.38ZM57.754 18L55.214 14.89V18H53.814V11.02H55.214V14.15L57.754 11.02H59.444L56.564 14.48L59.524 18H57.754ZM65.6749 12.46V18H64.2649V17.3C64.0849 17.54 63.8482 17.73 63.5549 17.87C63.2682 18.0033 62.9549 18.07 62.6149 18.07C62.1815 18.07 61.7982 17.98 61.4649 17.8C61.1315 17.6133 60.8682 17.3433 60.6749 16.99C60.4882 16.63 60.3949 16.2033 60.3949 15.71V12.46H61.7949V15.51C61.7949 15.95 61.9049 16.29 62.1249 16.53C62.3449 16.7633 62.6449 16.88 63.0249 16.88C63.4115 16.88 63.7149 16.7633 63.9349 16.53C64.1549 16.29 64.2649 15.95 64.2649 15.51V12.46H65.6749ZM70.1262 12.38C70.7862 12.38 71.3195 12.59 71.7262 13.01C72.1329 13.4233 72.3362 14.0033 72.3362 14.75V18H70.9362V14.94C70.9362 14.5 70.8262 14.1633 70.6062 13.93C70.3862 13.69 70.0862 13.57 69.7062 13.57C69.3195 13.57 69.0129 13.69 68.7862 13.93C68.5662 14.1633 68.4562 14.5 68.4562 14.94V18H67.0562V12.46H68.4562V13.15C68.6429 12.91 68.8795 12.7233 69.1662 12.59C69.4595 12.45 69.7795 12.38 70.1262 12.38ZM73.3075 15.23C73.3075 14.6567 73.4242 14.1567 73.6575 13.73C73.8909 13.2967 74.2142 12.9633 74.6275 12.73C75.0409 12.49 75.5142 12.37 76.0475 12.37C76.7342 12.37 77.3009 12.5433 77.7475 12.89C78.2009 13.23 78.5042 13.71 78.6575 14.33H77.1475C77.0675 14.09 76.9309 13.9033 76.7375 13.77C76.5509 13.63 76.3175 13.56 76.0375 13.56C75.6375 13.56 75.3209 13.7067 75.0875 14C74.8542 14.2867 74.7375 14.6967 74.7375 15.23C74.7375 15.7567 74.8542 16.1667 75.0875 16.46C75.3209 16.7467 75.6375 16.89 76.0375 16.89C76.6042 16.89 76.9742 16.6367 77.1475 16.13H78.6575C78.5042 16.73 78.2009 17.2067 77.7475 17.56C77.2942 17.9133 76.7275 18.09 76.0475 18.09C75.5142 18.09 75.0409 17.9733 74.6275 17.74C74.2142 17.5 73.8909 17.1667 73.6575 16.74C73.4242 16.3067 73.3075 15.8033 73.3075 15.23ZM80.3932 11.8C80.1465 11.8 79.9398 11.7233 79.7732 11.57C79.6132 11.41 79.5332 11.2133 79.5332 10.98C79.5332 10.7467 79.6132 10.5533 79.7732 10.4C79.9398 10.24 80.1465 10.16 80.3932 10.16C80.6398 10.16 80.8432 10.24 81.0032 10.4C81.1698 10.5533 81.2532 10.7467 81.2532 10.98C81.2532 11.2133 81.1698 11.41 81.0032 11.57C80.8432 11.7233 80.6398 11.8 80.3932 11.8ZM81.0832 12.46V18H79.6832V12.46H81.0832Z" fill="#FBFCFF"/>
<circle cx="99.5" cy="14.5" r="12.5" fill="#FBFCFF"/>
<path d="M104.5 12.8333H101.167V9.49992C101.167 9.05789 100.991 8.63397 100.678 8.32141C100.366 8.00885 99.942 7.83325 99.5 7.83325C99.058 7.83325 98.634 8.00885 98.3215 8.32141C98.0089 8.63397 97.8333 9.05789 97.8333 9.49992L97.8925 12.8333H94.5C94.058 12.8333 93.634 13.0088 93.3215 13.3214C93.0089 13.634 92.8333 14.0579 92.8333 14.4999C92.8333 14.9419 93.0089 15.3659 93.3215 15.6784C93.634 15.991 94.058 16.1666 94.5 16.1666L97.8925 16.1074L97.8333 19.4999C97.8333 19.9419 98.0089 20.3659 98.3215 20.6784C98.634 20.991 99.058 21.1666 99.5 21.1666C99.942 21.1666 100.366 20.991 100.678 20.6784C100.991 20.3659 101.167 19.9419 101.167 19.4999V16.1074L104.5 16.1666C104.942 16.1666 105.366 15.991 105.678 15.6784C105.991 15.3659 106.167 14.9419 106.167 14.4999C106.167 14.0579 105.991 13.634 105.678 13.3214C105.366 13.0088 104.942 12.8333 104.5 12.8333Z" fill="#00BF62"/>
</svg>
