<svg width="159" height="34" viewBox="0 0 159 34" fill="none" xmlns="http://www.w3.org/2000/svg">
<rect width="159" height="34" rx="17" fill="#00BF62"/>
<circle cx="17" cy="17" r="15" fill="#FBFCFF"/>
<path d="M15.5 15.3125L17 14.5625L18.5 15.3125V11.75H15.5V15.3125ZM13.25 20.75V19.25H17V20.75H13.25ZM11.75 23.75C11.3375 23.75 10.9845 23.6033 10.691 23.3097C10.3975 23.0162 10.2505 22.663 10.25 22.25V11.75C10.25 11.3375 10.397 10.9845 10.691 10.691C10.985 10.3975 11.338 10.2505 11.75 10.25H22.25C22.6625 10.25 23.0157 10.397 23.3097 10.691C23.6038 10.985 23.7505 11.338 23.75 11.75V22.25C23.75 22.6625 23.6033 23.0157 23.3097 23.3097C23.0162 23.6038 22.663 23.7505 22.25 23.75H11.75ZM11.75 22.25H22.25V11.75H20V17.75L17 16.25L14 17.75V11.75H11.75V22.25Z" fill="#00BF62"/>
<path d="M40.0808 20.557H43.0708V22H38.2608V12.926H40.0808V20.557ZM43.7596 18.373C43.7596 17.645 43.9026 16.9993 44.1886 16.436C44.4832 15.8727 44.8776 15.4393 45.3716 15.136C45.8742 14.8327 46.4332 14.681 47.0486 14.681C47.5859 14.681 48.0539 14.7893 48.4526 15.006C48.8599 15.2227 49.1849 15.4957 49.4276 15.825V14.798H51.2606V22H49.4276V20.947C49.1936 21.285 48.8686 21.5667 48.4526 21.792C48.0452 22.0087 47.5729 22.117 47.0356 22.117C46.4289 22.117 45.8742 21.961 45.3716 21.649C44.8776 21.337 44.4832 20.8993 44.1886 20.336C43.9026 19.764 43.7596 19.1097 43.7596 18.373ZM49.4276 18.399C49.4276 17.957 49.3409 17.58 49.1676 17.268C48.9942 16.9473 48.7602 16.7047 48.4656 16.54C48.1709 16.3667 47.8546 16.28 47.5166 16.28C47.1786 16.28 46.8666 16.3623 46.5806 16.527C46.2946 16.6917 46.0606 16.9343 45.8786 17.255C45.7052 17.567 45.6186 17.9397 45.6186 18.373C45.6186 18.8063 45.7052 19.1877 45.8786 19.517C46.0606 19.8377 46.2946 20.0847 46.5806 20.258C46.8752 20.4313 47.1872 20.518 47.5166 20.518C47.8546 20.518 48.1709 20.4357 48.4656 20.271C48.7602 20.0977 48.9942 19.855 49.1676 19.543C49.3409 19.2223 49.4276 18.841 49.4276 18.399ZM54.8581 15.838C55.0921 15.5087 55.4128 15.2357 55.8201 15.019C56.2361 14.7937 56.7084 14.681 57.2371 14.681C57.8524 14.681 58.4071 14.8327 58.9011 15.136C59.4038 15.4393 59.7981 15.8727 60.0841 16.436C60.3788 16.9907 60.5261 17.6363 60.5261 18.373C60.5261 19.1097 60.3788 19.764 60.0841 20.336C59.7981 20.8993 59.4038 21.337 58.9011 21.649C58.4071 21.961 57.8524 22.117 57.2371 22.117C56.7084 22.117 56.2404 22.0087 55.8331 21.792C55.4344 21.5753 55.1094 21.3023 54.8581 20.973V25.432H53.0381V14.798H54.8581V15.838ZM58.6671 18.373C58.6671 17.9397 58.5761 17.567 58.3941 17.255C58.2208 16.9343 57.9868 16.6917 57.6921 16.527C57.4061 16.3623 57.0941 16.28 56.7561 16.28C56.4268 16.28 56.1148 16.3667 55.8201 16.54C55.5341 16.7047 55.3001 16.9473 55.1181 17.268C54.9448 17.5887 54.8581 17.9657 54.8581 18.399C54.8581 18.8323 54.9448 19.2093 55.1181 19.53C55.3001 19.8507 55.5341 20.0977 55.8201 20.271C56.1148 20.4357 56.4268 20.518 56.7561 20.518C57.0941 20.518 57.4061 20.4313 57.6921 20.258C57.9868 20.0847 58.2208 19.8377 58.3941 19.517C58.5761 19.1963 58.6671 18.815 58.6671 18.373ZM65.0467 22.117C64.3533 22.117 63.7293 21.9653 63.1747 21.662C62.62 21.35 62.1823 20.9123 61.8617 20.349C61.5497 19.7857 61.3937 19.1357 61.3937 18.399C61.3937 17.6623 61.554 17.0123 61.8747 16.449C62.204 15.8857 62.6503 15.4523 63.2137 15.149C63.777 14.837 64.4053 14.681 65.0987 14.681C65.792 14.681 66.4203 14.837 66.9837 15.149C67.547 15.4523 67.989 15.8857 68.3097 16.449C68.639 17.0123 68.8037 17.6623 68.8037 18.399C68.8037 19.1357 68.6347 19.7857 68.2967 20.349C67.9673 20.9123 67.5167 21.35 66.9447 21.662C66.3813 21.9653 65.7487 22.117 65.0467 22.117ZM65.0467 20.531C65.376 20.531 65.6837 20.453 65.9697 20.297C66.2643 20.1323 66.4983 19.8897 66.6717 19.569C66.845 19.2483 66.9317 18.8583 66.9317 18.399C66.9317 17.7143 66.7497 17.19 66.3857 16.826C66.0303 16.4533 65.5927 16.267 65.0727 16.267C64.5527 16.267 64.115 16.4533 63.7597 16.826C63.413 17.19 63.2397 17.7143 63.2397 18.399C63.2397 19.0837 63.4087 19.6123 63.7467 19.985C64.0933 20.349 64.5267 20.531 65.0467 20.531ZM71.9587 15.916C72.1927 15.5347 72.496 15.2357 72.8687 15.019C73.25 14.8023 73.6834 14.694 74.1687 14.694V16.605H73.6877C73.1157 16.605 72.6824 16.7393 72.3877 17.008C72.1017 17.2767 71.9587 17.7447 71.9587 18.412V22H70.1387V14.798H71.9587V15.916ZM74.9266 18.373C74.9266 17.645 75.0696 16.9993 75.3556 16.436C75.6502 15.8727 76.0446 15.4393 76.5386 15.136C77.0412 14.8327 77.6002 14.681 78.2156 14.681C78.7529 14.681 79.2209 14.7893 79.6196 15.006C80.0269 15.2227 80.3519 15.4957 80.5946 15.825V14.798H82.4276V22H80.5946V20.947C80.3606 21.285 80.0356 21.5667 79.6196 21.792C79.2122 22.0087 78.7399 22.117 78.2026 22.117C77.5959 22.117 77.0412 21.961 76.5386 21.649C76.0446 21.337 75.6502 20.8993 75.3556 20.336C75.0696 19.764 74.9266 19.1097 74.9266 18.373ZM80.5946 18.399C80.5946 17.957 80.5079 17.58 80.3346 17.268C80.1612 16.9473 79.9272 16.7047 79.6326 16.54C79.3379 16.3667 79.0216 16.28 78.6836 16.28C78.3456 16.28 78.0336 16.3623 77.7476 16.527C77.4616 16.6917 77.2276 16.9343 77.0456 17.255C76.8722 17.567 76.7856 17.9397 76.7856 18.373C76.7856 18.8063 76.8722 19.1877 77.0456 19.517C77.2276 19.8377 77.4616 20.0847 77.7476 20.258C78.0422 20.4313 78.3542 20.518 78.6836 20.518C79.0216 20.518 79.3379 20.4357 79.6326 20.271C79.9272 20.0977 80.1612 19.855 80.3346 19.543C80.5079 19.2223 80.5946 18.841 80.5946 18.399ZM88.1961 14.694C89.0541 14.694 89.7474 14.967 90.2761 15.513C90.8048 16.0503 91.0691 16.8043 91.0691 17.775V22H89.2491V18.022C89.2491 17.45 89.1061 17.0123 88.8201 16.709C88.5341 16.397 88.1441 16.241 87.6501 16.241C87.1474 16.241 86.7488 16.397 86.4541 16.709C86.1681 17.0123 86.0251 17.45 86.0251 18.022V22H84.2051V14.798H86.0251V15.695C86.2678 15.383 86.5754 15.1403 86.9481 14.967C87.3294 14.785 87.7454 14.694 88.1961 14.694ZM101.045 17.346C101.557 17.4413 101.977 17.697 102.306 18.113C102.636 18.529 102.8 19.0057 102.8 19.543C102.8 20.0283 102.679 20.4573 102.436 20.83C102.202 21.194 101.86 21.48 101.409 21.688C100.959 21.896 100.426 22 99.8105 22H95.8975V12.926H99.6415C100.257 12.926 100.785 13.0257 101.227 13.225C101.678 13.4243 102.016 13.7017 102.241 14.057C102.475 14.4123 102.592 14.8153 102.592 15.266C102.592 15.7947 102.449 16.2367 102.163 16.592C101.886 16.9473 101.513 17.1987 101.045 17.346ZM97.7175 16.67H99.3815C99.8148 16.67 100.148 16.5747 100.382 16.384C100.616 16.1847 100.733 15.903 100.733 15.539C100.733 15.175 100.616 14.8933 100.382 14.694C100.148 14.4947 99.8148 14.395 99.3815 14.395H97.7175V16.67ZM99.5505 20.518C99.9925 20.518 100.335 20.414 100.577 20.206C100.829 19.998 100.954 19.7033 100.954 19.322C100.954 18.932 100.824 18.6287 100.564 18.412C100.304 18.1867 99.9535 18.074 99.5115 18.074H97.7175V20.518H99.5505ZM103.783 18.373C103.783 17.645 103.926 16.9993 104.212 16.436C104.507 15.8727 104.901 15.4393 105.395 15.136C105.898 14.8327 106.457 14.681 107.072 14.681C107.609 14.681 108.077 14.7893 108.476 15.006C108.883 15.2227 109.208 15.4957 109.451 15.825V14.798H111.284V22H109.451V20.947C109.217 21.285 108.892 21.5667 108.476 21.792C108.069 22.0087 107.596 22.117 107.059 22.117C106.452 22.117 105.898 21.961 105.395 21.649C104.901 21.337 104.507 20.8993 104.212 20.336C103.926 19.764 103.783 19.1097 103.783 18.373ZM109.451 18.399C109.451 17.957 109.364 17.58 109.191 17.268C109.018 16.9473 108.784 16.7047 108.489 16.54C108.194 16.3667 107.878 16.28 107.54 16.28C107.202 16.28 106.89 16.3623 106.604 16.527C106.318 16.6917 106.084 16.9343 105.902 17.255C105.729 17.567 105.642 17.9397 105.642 18.373C105.642 18.8063 105.729 19.1877 105.902 19.517C106.084 19.8377 106.318 20.0847 106.604 20.258C106.899 20.4313 107.211 20.518 107.54 20.518C107.878 20.518 108.194 20.4357 108.489 20.271C108.784 20.0977 109.018 19.855 109.191 19.543C109.364 19.2223 109.451 18.841 109.451 18.399ZM114.882 15.916C115.116 15.5347 115.419 15.2357 115.792 15.019C116.173 14.8023 116.606 14.694 117.092 14.694V16.605H116.611C116.039 16.605 115.605 16.7393 115.311 17.008C115.025 17.2767 114.882 17.7447 114.882 18.412V22H113.062V14.798H114.882V15.916ZM117.849 18.373C117.849 17.645 117.992 16.9993 118.278 16.436C118.573 15.8727 118.967 15.4393 119.461 15.136C119.964 14.8327 120.523 14.681 121.138 14.681C121.676 14.681 122.144 14.7893 122.542 15.006C122.95 15.2227 123.275 15.4957 123.517 15.825V14.798H125.35V22H123.517V20.947C123.283 21.285 122.958 21.5667 122.542 21.792C122.135 22.0087 121.663 22.117 121.125 22.117C120.519 22.117 119.964 21.961 119.461 21.649C118.967 21.337 118.573 20.8993 118.278 20.336C117.992 19.764 117.849 19.1097 117.849 18.373ZM123.517 18.399C123.517 17.957 123.431 17.58 123.257 17.268C123.084 16.9473 122.85 16.7047 122.555 16.54C122.261 16.3667 121.944 16.28 121.606 16.28C121.268 16.28 120.956 16.3623 120.67 16.527C120.384 16.6917 120.15 16.9343 119.968 17.255C119.795 17.567 119.708 17.9397 119.708 18.373C119.708 18.8063 119.795 19.1877 119.968 19.517C120.15 19.8377 120.384 20.0847 120.67 20.258C120.965 20.4313 121.277 20.518 121.606 20.518C121.944 20.518 122.261 20.4357 122.555 20.271C122.85 20.0977 123.084 19.855 123.257 19.543C123.431 19.2223 123.517 18.841 123.517 18.399ZM131.119 14.694C131.977 14.694 132.67 14.967 133.199 15.513C133.728 16.0503 133.992 16.8043 133.992 17.775V22H132.172V18.022C132.172 17.45 132.029 17.0123 131.743 16.709C131.457 16.397 131.067 16.241 130.573 16.241C130.07 16.241 129.672 16.397 129.377 16.709C129.091 17.0123 128.948 17.45 128.948 18.022V22H127.128V14.798H128.948V15.695C129.191 15.383 129.498 15.1403 129.871 14.967C130.252 14.785 130.668 14.694 131.119 14.694ZM138.544 14.681C139.081 14.681 139.553 14.7893 139.961 15.006C140.368 15.214 140.689 15.487 140.923 15.825V14.798H142.756V22.052C142.756 22.7193 142.621 23.313 142.353 23.833C142.084 24.3617 141.681 24.7777 141.144 25.081C140.606 25.393 139.956 25.549 139.194 25.549C138.171 25.549 137.33 25.3107 136.672 24.834C136.022 24.3573 135.653 23.7073 135.567 22.884H137.374C137.469 23.2133 137.673 23.4733 137.985 23.664C138.305 23.8633 138.691 23.963 139.142 23.963C139.67 23.963 140.099 23.8027 140.429 23.482C140.758 23.17 140.923 22.6933 140.923 22.052V20.934C140.689 21.272 140.364 21.5537 139.948 21.779C139.54 22.0043 139.072 22.117 138.544 22.117C137.937 22.117 137.382 21.961 136.88 21.649C136.377 21.337 135.978 20.8993 135.684 20.336C135.398 19.764 135.255 19.1097 135.255 18.373C135.255 17.645 135.398 16.9993 135.684 16.436C135.978 15.8727 136.373 15.4393 136.867 15.136C137.369 14.8327 137.928 14.681 138.544 14.681ZM140.923 18.399C140.923 17.957 140.836 17.58 140.663 17.268C140.489 16.9473 140.255 16.7047 139.961 16.54C139.666 16.3667 139.35 16.28 139.012 16.28C138.674 16.28 138.362 16.3623 138.076 16.527C137.79 16.6917 137.556 16.9343 137.374 17.255C137.2 17.567 137.114 17.9397 137.114 18.373C137.114 18.8063 137.2 19.1877 137.374 19.517C137.556 19.8377 137.79 20.0847 138.076 20.258C138.37 20.4313 138.682 20.518 139.012 20.518C139.35 20.518 139.666 20.4357 139.961 20.271C140.255 20.0977 140.489 19.855 140.663 19.543C140.836 19.2223 140.923 18.841 140.923 18.399Z" fill="#FBFCFF"/>
</svg>
